<svg width="487" height="96" viewBox="0 0 487 96" fill="none" xmlns="http://www.w3.org/2000/svg">
<circle cx="78" cy="47" r="45" fill="#8B5CF6"/>
<ellipse cx="78.1724" cy="48.7946" rx="75" ry="22.5" transform="rotate(20 78.1724 48.7946)" stroke="#61DAFB" stroke-width="6"/>
<circle cx="78" cy="47" r="45" fill="url(#paint0_linear_1_9)" stroke="url(#paint1_linear_1_9)" stroke-width="4"/>
<path d="M214.449 29.0909H220.773V51.8977C220.773 54.3977 220.182 56.5966 219 58.4943C217.83 60.392 216.182 61.875 214.057 62.9432C211.932 64 209.449 64.5284 206.608 64.5284C203.756 64.5284 201.267 64 199.142 62.9432C197.017 61.875 195.369 60.392 194.199 58.4943C193.028 56.5966 192.443 54.3977 192.443 51.8977V29.0909H198.767V51.3693C198.767 52.8239 199.085 54.1193 199.722 55.2557C200.369 56.392 201.278 57.2841 202.449 57.9318C203.619 58.5682 205.006 58.8864 206.608 58.8864C208.21 58.8864 209.597 58.5682 210.767 57.9318C211.949 57.2841 212.858 56.392 213.494 55.2557C214.131 54.1193 214.449 52.8239 214.449 51.3693V29.0909ZM233.544 48.6591V64H227.374V37.8182H233.271V42.267H233.578C234.18 40.8011 235.141 39.6364 236.459 38.7727C237.788 37.9091 239.43 37.4773 241.385 37.4773C243.192 37.4773 244.766 37.8636 246.107 38.6364C247.459 39.4091 248.504 40.5284 249.243 41.9943C249.993 43.4602 250.362 45.2386 250.351 47.3295V64H244.18V48.2841C244.18 46.5341 243.726 45.1648 242.817 44.1761C241.919 43.1875 240.675 42.6932 239.084 42.6932C238.004 42.6932 237.044 42.9318 236.203 43.4091C235.374 43.875 234.72 44.5511 234.243 45.4375C233.777 46.3239 233.544 47.3977 233.544 48.6591ZM256.624 64V37.8182H262.794V64H256.624ZM259.726 34.1023C258.749 34.1023 257.908 33.7784 257.203 33.1307C256.499 32.4716 256.146 31.6818 256.146 30.7614C256.146 29.8295 256.499 29.0398 257.203 28.392C257.908 27.733 258.749 27.4034 259.726 27.4034C260.714 27.4034 261.555 27.733 262.249 28.392C262.953 29.0398 263.305 29.8295 263.305 30.7614C263.305 31.6818 262.953 32.4716 262.249 33.1307C261.555 33.7784 260.714 34.1023 259.726 34.1023ZM292.526 37.8182L283.202 64H276.384L267.06 37.8182H273.639L279.656 57.267H279.929L285.963 37.8182H292.526ZM307.496 64.5114C304.871 64.5114 302.604 63.9659 300.695 62.875C298.797 61.7727 297.337 60.2159 296.314 58.2045C295.291 56.1818 294.78 53.8011 294.78 51.0625C294.78 48.3693 295.291 46.0057 296.314 43.9716C297.348 41.9261 298.791 40.3352 300.643 39.1989C302.496 38.0511 304.672 37.4773 307.172 37.4773C308.786 37.4773 310.308 37.7386 311.74 38.2614C313.183 38.7727 314.456 39.5682 315.558 40.6477C316.672 41.7273 317.547 43.1023 318.183 44.7727C318.82 46.4318 319.138 48.4091 319.138 50.7045V52.5966H297.678V48.4375H313.223C313.212 47.2557 312.956 46.2045 312.456 45.2841C311.956 44.3523 311.257 43.6193 310.359 43.0852C309.473 42.5511 308.439 42.2841 307.257 42.2841C305.996 42.2841 304.888 42.5909 303.933 43.2045C302.979 43.8068 302.234 44.6023 301.7 45.5909C301.178 46.5682 300.911 47.642 300.899 48.8125V52.4432C300.899 53.9659 301.178 55.2727 301.734 56.3636C302.291 57.4432 303.07 58.2727 304.07 58.8523C305.07 59.4205 306.24 59.7045 307.581 59.7045C308.479 59.7045 309.291 59.5795 310.018 59.3295C310.746 59.0682 311.376 58.6875 311.911 58.1875C312.445 57.6875 312.848 57.0682 313.121 56.3295L318.882 56.9773C318.518 58.5 317.825 59.8295 316.803 60.9659C315.791 62.0909 314.496 62.9659 312.916 63.5909C311.337 64.2045 309.53 64.5114 307.496 64.5114ZM324.358 64V37.8182H330.341V42.1818H330.614C331.091 40.6705 331.909 39.5057 333.068 38.6875C334.239 37.858 335.574 37.4432 337.074 37.4432C337.415 37.4432 337.795 37.4602 338.216 37.4943C338.648 37.517 339.006 37.5568 339.29 37.6136V43.2898C339.028 43.1989 338.614 43.1193 338.045 43.0511C337.489 42.9716 336.949 42.9318 336.426 42.9318C335.301 42.9318 334.29 43.1761 333.392 43.6648C332.506 44.142 331.807 44.8068 331.295 45.6591C330.784 46.5114 330.528 47.4943 330.528 48.608V64H324.358ZM364.082 44.7386L358.457 45.3523C358.298 44.7841 358.02 44.25 357.622 43.75C357.236 43.25 356.713 42.8466 356.054 42.5398C355.395 42.233 354.588 42.0795 353.634 42.0795C352.349 42.0795 351.27 42.358 350.395 42.9148C349.531 43.4716 349.105 44.1932 349.116 45.0795C349.105 45.8409 349.384 46.4602 349.952 46.9375C350.531 47.4148 351.486 47.8068 352.815 48.1136L357.281 49.0682C359.759 49.6023 361.599 50.4489 362.804 51.608C364.02 52.767 364.634 54.2841 364.645 56.1591C364.634 57.8068 364.151 59.2614 363.196 60.5227C362.253 61.7727 360.94 62.75 359.259 63.4545C357.577 64.1591 355.645 64.5114 353.463 64.5114C350.259 64.5114 347.679 63.8409 345.724 62.5C343.77 61.1477 342.605 59.267 342.23 56.858L348.247 56.2784C348.52 57.4602 349.099 58.3523 349.986 58.9545C350.872 59.5568 352.026 59.858 353.446 59.858C354.912 59.858 356.088 59.5568 356.974 58.9545C357.872 58.3523 358.321 57.608 358.321 56.7216C358.321 55.9716 358.031 55.3523 357.452 54.8636C356.884 54.375 355.997 54 354.793 53.7386L350.327 52.8011C347.815 52.2784 345.957 51.3977 344.753 50.1591C343.548 48.9091 342.952 47.3295 342.963 45.4205C342.952 43.8068 343.389 42.4091 344.276 41.2273C345.173 40.0341 346.418 39.1136 348.009 38.4659C349.611 37.8068 351.457 37.4773 353.548 37.4773C356.616 37.4773 359.031 38.1307 360.793 39.4375C362.565 40.7443 363.662 42.5114 364.082 44.7386ZM381.153 64.5114C378.597 64.5114 376.381 63.9489 374.506 62.8239C372.631 61.6989 371.176 60.125 370.142 58.1023C369.119 56.0795 368.608 53.7159 368.608 51.0114C368.608 48.3068 369.119 45.9375 370.142 43.9034C371.176 41.8693 372.631 40.2898 374.506 39.1648C376.381 38.0398 378.597 37.4773 381.153 37.4773C383.71 37.4773 385.926 38.0398 387.801 39.1648C389.676 40.2898 391.125 41.8693 392.148 43.9034C393.182 45.9375 393.699 48.3068 393.699 51.0114C393.699 53.7159 393.182 56.0795 392.148 58.1023C391.125 60.125 389.676 61.6989 387.801 62.8239C385.926 63.9489 383.71 64.5114 381.153 64.5114ZM381.188 59.5682C382.574 59.5682 383.733 59.1875 384.665 58.4261C385.597 57.6534 386.29 56.6193 386.744 55.3239C387.21 54.0284 387.443 52.5852 387.443 50.9943C387.443 49.392 387.21 47.9432 386.744 46.6477C386.29 45.3409 385.597 44.3011 384.665 43.5284C383.733 42.7557 382.574 42.3693 381.188 42.3693C379.767 42.3693 378.585 42.7557 377.642 43.5284C376.71 44.3011 376.011 45.3409 375.545 46.6477C375.091 47.9432 374.864 49.392 374.864 50.9943C374.864 52.5852 375.091 54.0284 375.545 55.3239C376.011 56.6193 376.71 57.6534 377.642 58.4261C378.585 59.1875 379.767 59.5682 381.188 59.5682Z" fill="#F8FAFC"/>
<path d="M412.878 71V65.2898L428.027 50.4389C429.476 48.9759 430.683 47.6761 431.649 46.5398C432.615 45.4034 433.339 44.3026 433.822 43.2372C434.305 42.1719 434.547 41.0355 434.547 39.8281C434.547 38.4503 434.234 37.2713 433.609 36.2912C432.984 35.2969 432.125 34.5298 431.031 33.9901C429.938 33.4503 428.695 33.1804 427.303 33.1804C425.868 33.1804 424.611 33.4787 423.531 34.0753C422.452 34.6577 421.614 35.4886 421.017 36.5682C420.435 37.6477 420.143 38.9332 420.143 40.4247H412.622C412.622 37.6548 413.254 35.2472 414.518 33.2017C415.783 31.1562 417.523 29.5724 419.739 28.4503C421.969 27.3281 424.526 26.767 427.409 26.767C430.335 26.767 432.906 27.3139 435.122 28.4077C437.338 29.5014 439.057 31 440.278 32.9034C441.514 34.8068 442.132 36.9801 442.132 39.4233C442.132 41.0568 441.82 42.6619 441.195 44.2386C440.57 45.8153 439.469 47.5625 437.892 49.4801C436.33 51.3977 434.135 53.7202 431.308 56.4474L423.787 64.0966V64.3949H442.793V71H412.878ZM466.273 71.831C462.764 71.831 459.753 70.9432 457.239 69.1676C454.739 67.3778 452.814 64.7997 451.464 61.4332C450.129 58.0526 449.462 53.983 449.462 49.2244C449.476 44.4659 450.151 40.4176 451.486 37.0795C452.835 33.7273 454.76 31.1705 457.26 29.4091C459.774 27.6477 462.778 26.767 466.273 26.767C469.767 26.767 472.771 27.6477 475.286 29.4091C477.8 31.1705 479.724 33.7273 481.06 37.0795C482.409 40.4318 483.084 44.4801 483.084 49.2244C483.084 53.9972 482.409 58.0739 481.06 61.4545C479.724 64.821 477.8 67.392 475.286 69.1676C472.786 70.9432 469.781 71.831 466.273 71.831ZM466.273 65.1619C469 65.1619 471.152 63.8196 472.729 61.1349C474.32 58.4361 475.115 54.4659 475.115 49.2244C475.115 45.7585 474.753 42.8466 474.028 40.4886C473.304 38.1307 472.281 36.3551 470.96 35.1619C469.639 33.9545 468.077 33.3509 466.273 33.3509C463.56 33.3509 461.415 34.7003 459.838 37.3991C458.261 40.0838 457.466 44.0256 457.452 49.2244C457.438 52.7045 457.786 55.6307 458.496 58.0028C459.22 60.375 460.243 62.1648 461.564 63.3722C462.885 64.5653 464.455 65.1619 466.273 65.1619Z" fill="#4F7DFF"/>
<defs>
<linearGradient id="paint0_linear_1_9" x1="52" y1="17.5" x2="101" y2="79.5" gradientUnits="userSpaceOnUse">
<stop stop-color="#6611DD" stop-opacity="0.984314"/>
<stop offset="1" stop-color="#4F7DFF"/>
</linearGradient>
<linearGradient id="paint1_linear_1_9" x1="78" y1="2" x2="78" y2="92" gradientUnits="userSpaceOnUse">
<stop stop-color="#61DAFB"/>
<stop offset="1" stop-color="#4F7DFF"/>
</linearGradient>
</defs>
</svg>
