<svg width="797" height="317" viewBox="0 0 797 317" fill="none" xmlns="http://www.w3.org/2000/svg">
<path d="M231.3 178.84C231.153 177.973 230.767 177.04 230.14 176.04C229.513 175.027 228.62 174.087 227.46 173.22C226.313 172.353 225.167 171.8 224.02 171.56V170.72C225.153 170.453 226.24 169.96 227.28 169.24C228.333 168.507 229.213 167.627 229.92 166.6C230.64 165.547 231.1 164.507 231.3 163.48H232.14C232.26 164.147 232.5 164.833 232.86 165.54C233.22 166.233 233.68 166.9 234.24 167.54C234.813 168.167 235.453 168.733 236.16 169.24C237.213 169.987 238.287 170.48 239.38 170.72V171.56C238.647 171.707 237.887 172.007 237.1 172.46C236.327 172.913 235.607 173.453 234.94 174.08C234.273 174.693 233.727 175.34 233.3 176.02C232.673 177.02 232.287 177.96 232.14 178.84H231.3Z" fill="white"/>
<path d="M222.62 114.08C227.753 114.08 232.667 114.373 237.36 114.96C242.2 115.4 246.673 116.133 250.78 117.16C255.033 118.04 258.847 119.287 262.22 120.9C263.393 121.487 264.127 122.073 264.42 122.66C264.86 123.247 265.153 124.347 265.3 125.96L267.94 155C267.94 155.44 267.573 155.733 266.84 155.88C266.107 156.027 265.593 155.807 265.3 155.22C261.487 143.34 255.84 134.247 248.36 127.94C240.88 121.487 231.493 118.26 220.2 118.26C209.347 118.26 199.74 120.973 191.38 126.4C183.02 131.68 176.493 139.307 171.8 149.28C167.107 159.107 164.76 170.84 164.76 184.48C164.76 194.453 166.153 203.62 168.94 211.98C171.873 220.34 175.907 227.527 181.04 233.54C186.32 239.553 192.407 244.247 199.3 247.62C206.193 250.847 213.747 252.46 221.96 252.46C232.96 252.46 241.98 249.6 249.02 243.88C256.06 238.16 262.22 229.213 267.5 217.04C267.647 216.6 268.087 216.453 268.82 216.6C269.553 216.747 269.92 216.967 269.92 217.26L267.06 243.44C266.913 245.2 266.62 246.373 266.18 246.96C265.887 247.4 265.153 247.913 263.98 248.5C256.793 251.433 249.753 253.487 242.86 254.66C235.967 255.98 228.927 256.64 221.74 256.64C206.047 256.64 192.113 253.707 179.94 247.84C167.767 241.827 158.16 233.467 151.12 222.76C144.227 211.907 140.78 199.513 140.78 185.58C140.78 175.02 142.833 165.34 146.94 156.54C151.047 147.74 156.767 140.187 164.1 133.88C171.58 127.573 180.307 122.733 190.28 119.36C200.253 115.84 211.033 114.08 222.62 114.08Z" fill="#F8FAFC"/>
<path d="M25.96 176.38L28.16 70.56L34.1 71L31.68 176.38C31.5333 184.153 33 190.093 36.08 194.2C39.3067 198.307 44.0733 200.36 50.38 200.36C50.82 200.36 51.04 200.8 51.04 201.68C51.04 202.56 50.82 203 50.38 203C47.1533 203 43.8533 202.927 40.48 202.78C37.1067 202.633 33.2933 202.56 29.04 202.56C24.64 202.56 20.6067 202.633 16.94 202.78C13.42 202.927 10.0467 203 6.82 203C6.38 203 6.16 202.56 6.16 201.68C6.16 200.8 6.38 200.36 6.82 200.36C12.8333 200.36 17.4533 198.307 20.68 194.2C24.0533 190.093 25.8133 184.153 25.96 176.38ZM181.72 200.36C182.013 200.36 182.16 200.8 182.16 201.68C182.16 202.56 182.013 203 181.72 203C177.907 203 173.653 202.927 168.96 202.78C164.267 202.633 159.353 202.56 154.22 202.56C149.087 202.56 144.247 202.633 139.7 202.78C135.3 202.927 131.267 203 127.6 203C127.307 203 127.16 202.56 127.16 201.68C127.16 200.8 127.307 200.36 127.6 200.36C134.64 200.36 139.187 199.407 141.24 197.5C143.293 195.593 144.1 191.487 143.66 185.18L139.04 84.64L148.72 69.46L92.4 201.46C92.2533 202.047 91.6667 202.34 90.64 202.34C89.6133 202.34 88.9533 202.047 88.66 201.46L29.04 83.76C23.76 73.3467 16.8667 68.14 8.36 68.14C7.92 68.14 7.7 67.7 7.7 66.82C7.7 65.94 7.92 65.5 8.36 65.5C11.1467 65.5 14.08 65.5733 17.16 65.72C20.3867 65.8667 23.1 65.94 25.3 65.94C28.5267 65.94 31.3867 65.8667 33.88 65.72C36.52 65.5733 38.5733 65.5 40.04 65.5C42.0933 65.5 43.6333 66.2333 44.66 67.7C45.8333 69.02 47.6667 72.1 50.16 76.94L99.66 173.96L90.2 190.68L142.34 71C143.22 69.0933 144.173 67.7 145.2 66.82C146.227 65.94 147.473 65.5 148.94 65.5C150.26 65.5 151.653 65.5733 153.12 65.72C154.733 65.8667 156.64 65.94 158.84 65.94C163.24 65.94 166.98 65.8667 170.06 65.72C173.14 65.5733 176.147 65.5 179.08 65.5C179.52 65.5 179.74 65.94 179.74 66.82C179.74 67.7 179.52 68.14 179.08 68.14C172.333 68.14 167.347 69.3867 164.12 71.88C160.893 74.3733 159.427 78.6267 159.72 84.64L164.56 185.18C164.853 189.433 165.367 192.66 166.1 194.86C166.98 197.06 168.593 198.527 170.94 199.26C173.433 199.993 177.027 200.36 181.72 200.36Z" fill="white"/>
<line x1="314" y1="62.9949" x2="314.718" y2="202.993" stroke="white" stroke-width="2"/>
<path d="M360.753 102.636H370.341L387.011 143.341H387.625L404.295 102.636H413.884V155H406.366V117.108H405.881L390.438 154.923H384.199L368.756 117.082H368.27V155H360.753V102.636ZM436.185 155.869C433.697 155.869 431.447 155.409 429.435 154.489C427.424 153.551 425.83 152.196 424.654 150.423C423.495 148.651 422.915 146.477 422.915 143.903C422.915 141.687 423.342 139.864 424.194 138.432C425.046 137 426.197 135.866 427.646 135.031C429.094 134.196 430.714 133.565 432.504 133.139C434.293 132.713 436.117 132.389 437.975 132.168C440.327 131.895 442.237 131.673 443.702 131.503C445.168 131.315 446.234 131.017 446.898 130.608C447.563 130.199 447.896 129.534 447.896 128.614V128.435C447.896 126.202 447.265 124.472 446.004 123.244C444.759 122.017 442.901 121.403 440.43 121.403C437.856 121.403 435.827 121.974 434.344 123.116C432.879 124.241 431.864 125.494 431.302 126.875L424.117 125.239C424.969 122.852 426.214 120.926 427.85 119.46C429.504 117.977 431.404 116.903 433.552 116.239C435.7 115.557 437.958 115.216 440.327 115.216C441.896 115.216 443.558 115.403 445.313 115.778C447.086 116.136 448.739 116.801 450.273 117.773C451.825 118.744 453.094 120.134 454.083 121.94C455.072 123.73 455.566 126.057 455.566 128.92V155H448.1V149.631H447.793C447.299 150.619 446.558 151.591 445.569 152.545C444.58 153.5 443.31 154.293 441.759 154.923C440.208 155.554 438.35 155.869 436.185 155.869ZM437.847 149.733C439.961 149.733 441.768 149.315 443.268 148.48C444.785 147.645 445.935 146.554 446.719 145.207C447.521 143.844 447.921 142.386 447.921 140.835V135.773C447.648 136.045 447.12 136.301 446.336 136.54C445.569 136.761 444.691 136.957 443.702 137.128C442.714 137.281 441.751 137.426 440.813 137.562C439.876 137.682 439.092 137.784 438.461 137.869C436.978 138.057 435.623 138.372 434.396 138.815C433.185 139.259 432.214 139.898 431.481 140.733C430.765 141.551 430.407 142.642 430.407 144.006C430.407 145.898 431.106 147.33 432.504 148.301C433.901 149.256 435.683 149.733 437.847 149.733ZM469.175 169.727C468.033 169.727 466.993 169.634 466.055 169.446C465.118 169.276 464.419 169.088 463.959 168.884L465.8 162.619C467.197 162.994 468.442 163.156 469.533 163.105C470.624 163.054 471.587 162.645 472.422 161.878C473.274 161.111 474.024 159.858 474.672 158.119L475.618 155.511L461.249 115.727H469.43L479.376 146.205H479.786L489.732 115.727H497.939L481.754 160.241C481.004 162.287 480.05 164.017 478.891 165.432C477.732 166.864 476.351 167.938 474.749 168.653C473.146 169.369 471.288 169.727 469.175 169.727ZM505.124 155V115.727H512.513V121.966H512.922C513.638 119.852 514.899 118.19 516.706 116.98C518.53 115.753 520.592 115.139 522.893 115.139C523.371 115.139 523.933 115.156 524.581 115.19C525.246 115.224 525.766 115.267 526.141 115.318V122.631C525.834 122.545 525.288 122.452 524.504 122.349C523.72 122.23 522.936 122.17 522.152 122.17C520.345 122.17 518.734 122.554 517.32 123.321C515.922 124.071 514.814 125.119 513.996 126.466C513.178 127.795 512.768 129.312 512.768 131.017V155H505.124ZM543.834 155.869C541.345 155.869 539.095 155.409 537.084 154.489C535.072 153.551 533.479 152.196 532.303 150.423C531.143 148.651 530.564 146.477 530.564 143.903C530.564 141.687 530.99 139.864 531.842 138.432C532.695 137 533.845 135.866 535.294 135.031C536.743 134.196 538.362 133.565 540.152 133.139C541.942 132.713 543.766 132.389 545.624 132.168C547.976 131.895 549.885 131.673 551.351 131.503C552.817 131.315 553.882 131.017 554.547 130.608C555.212 130.199 555.544 129.534 555.544 128.614V128.435C555.544 126.202 554.913 124.472 553.652 123.244C552.408 122.017 550.55 121.403 548.078 121.403C545.504 121.403 543.476 121.974 541.993 123.116C540.527 124.241 539.513 125.494 538.95 126.875L531.766 125.239C532.618 122.852 533.862 120.926 535.499 119.46C537.152 117.977 539.053 116.903 541.2 116.239C543.348 115.557 545.607 115.216 547.976 115.216C549.544 115.216 551.206 115.403 552.962 115.778C554.734 116.136 556.388 116.801 557.922 117.773C559.473 118.744 560.743 120.134 561.732 121.94C562.72 123.73 563.214 126.057 563.214 128.92V155H555.749V149.631H555.442C554.947 150.619 554.206 151.591 553.217 152.545C552.229 153.5 550.959 154.293 549.408 154.923C547.857 155.554 545.999 155.869 543.834 155.869ZM545.496 149.733C547.609 149.733 549.416 149.315 550.916 148.48C552.433 147.645 553.584 146.554 554.368 145.207C555.169 143.844 555.57 142.386 555.57 140.835V135.773C555.297 136.045 554.768 136.301 553.984 136.54C553.217 136.761 552.339 136.957 551.351 137.128C550.362 137.281 549.399 137.426 548.462 137.562C547.524 137.682 546.74 137.784 546.109 137.869C544.626 138.057 543.271 138.372 542.044 138.815C540.834 139.259 539.862 139.898 539.129 140.733C538.413 141.551 538.055 142.642 538.055 144.006C538.055 145.898 538.754 147.33 540.152 148.301C541.55 149.256 543.331 149.733 545.496 149.733Z" fill="#F8FAFC"/>
<path d="M618.244 120.304H608.681C608.408 118.736 607.906 117.347 607.173 116.136C606.44 114.909 605.528 113.869 604.437 113.017C603.346 112.165 602.102 111.526 600.704 111.099C599.323 110.656 597.832 110.435 596.229 110.435C593.383 110.435 590.86 111.151 588.661 112.582C586.462 113.997 584.741 116.077 583.496 118.821C582.252 121.548 581.63 124.881 581.63 128.818C581.63 132.824 582.252 136.199 583.496 138.943C584.758 141.67 586.479 143.733 588.661 145.131C590.86 146.511 593.374 147.202 596.204 147.202C597.772 147.202 599.238 146.997 600.602 146.588C601.982 146.162 603.218 145.54 604.309 144.722C605.417 143.903 606.346 142.898 607.096 141.705C607.863 140.511 608.391 139.148 608.681 137.614L618.244 137.665C617.886 140.153 617.11 142.489 615.917 144.67C614.741 146.852 613.198 148.778 611.289 150.449C609.38 152.102 607.147 153.398 604.59 154.335C602.033 155.256 599.195 155.716 596.076 155.716C591.474 155.716 587.366 154.651 583.752 152.52C580.138 150.389 577.292 147.312 575.212 143.29C573.133 139.267 572.093 134.443 572.093 128.818C572.093 123.176 573.141 118.352 575.238 114.347C577.335 110.324 580.19 107.247 583.803 105.116C587.417 102.986 591.508 101.92 596.076 101.92C598.991 101.92 601.701 102.33 604.207 103.148C606.712 103.966 608.945 105.168 610.906 106.753C612.866 108.321 614.477 110.247 615.738 112.531C617.016 114.798 617.852 117.389 618.244 120.304ZM643.652 155.767C639.817 155.767 636.493 154.923 633.68 153.236C630.868 151.548 628.686 149.187 627.135 146.153C625.601 143.119 624.834 139.574 624.834 135.517C624.834 131.46 625.601 127.906 627.135 124.855C628.686 121.804 630.868 119.435 633.68 117.747C636.493 116.06 639.817 115.216 643.652 115.216C647.487 115.216 650.811 116.06 653.624 117.747C656.436 119.435 658.609 121.804 660.143 124.855C661.695 127.906 662.47 131.46 662.47 135.517C662.47 139.574 661.695 143.119 660.143 146.153C658.609 149.187 656.436 151.548 653.624 153.236C650.811 154.923 647.487 155.767 643.652 155.767ZM643.703 148.352C645.783 148.352 647.521 147.781 648.919 146.639C650.317 145.48 651.357 143.929 652.038 141.986C652.737 140.043 653.087 137.878 653.087 135.491C653.087 133.088 652.737 130.915 652.038 128.972C651.357 127.011 650.317 125.452 648.919 124.293C647.521 123.134 645.783 122.554 643.703 122.554C641.572 122.554 639.8 123.134 638.385 124.293C636.987 125.452 635.939 127.011 635.24 128.972C634.558 130.915 634.217 133.088 634.217 135.491C634.217 137.878 634.558 140.043 635.24 141.986C635.939 143.929 636.987 145.48 638.385 146.639C639.8 147.781 641.572 148.352 643.703 148.352ZM684.9 155.69C681.815 155.69 679.053 154.898 676.616 153.312C674.178 151.727 672.252 149.426 670.837 146.409C669.423 143.392 668.715 139.727 668.715 135.415C668.715 131.051 669.431 127.369 670.863 124.369C672.312 121.352 674.263 119.077 676.718 117.543C679.173 115.991 681.908 115.216 684.925 115.216C687.227 115.216 689.119 115.608 690.602 116.392C692.085 117.159 693.261 118.088 694.13 119.179C694.999 120.253 695.673 121.267 696.15 122.222H696.533V102.636H705.815V155H696.712V148.812H696.15C695.673 149.767 694.982 150.781 694.079 151.855C693.175 152.912 691.982 153.815 690.499 154.565C689.016 155.315 687.15 155.69 684.9 155.69ZM687.482 148.097C689.442 148.097 691.113 147.568 692.494 146.511C693.874 145.437 694.923 143.946 695.638 142.037C696.354 140.128 696.712 137.903 696.712 135.364C696.712 132.824 696.354 130.616 695.638 128.741C694.94 126.866 693.9 125.409 692.519 124.369C691.156 123.33 689.477 122.81 687.482 122.81C685.42 122.81 683.698 123.347 682.317 124.42C680.937 125.494 679.897 126.977 679.198 128.869C678.499 130.761 678.15 132.926 678.15 135.364C678.15 137.818 678.499 140.009 679.198 141.935C679.914 143.844 680.962 145.352 682.343 146.46C683.741 147.551 685.454 148.097 687.482 148.097ZM733.064 155.767C729.126 155.767 725.726 154.949 722.862 153.312C720.016 151.659 717.825 149.324 716.291 146.307C714.757 143.273 713.99 139.702 713.99 135.594C713.99 131.554 714.757 128.009 716.291 124.957C717.842 121.889 720.007 119.503 722.786 117.798C725.564 116.077 728.828 115.216 732.578 115.216C734.999 115.216 737.283 115.608 739.43 116.392C741.595 117.159 743.504 118.352 745.158 119.972C746.828 121.591 748.141 123.653 749.095 126.159C750.05 128.648 750.527 131.614 750.527 135.057V137.895H718.337V131.656H741.655C741.638 129.884 741.254 128.307 740.504 126.926C739.754 125.528 738.706 124.429 737.359 123.628C736.03 122.827 734.479 122.426 732.706 122.426C730.814 122.426 729.152 122.886 727.72 123.807C726.288 124.71 725.172 125.903 724.371 127.386C723.587 128.852 723.186 130.463 723.169 132.219V137.665C723.169 139.949 723.587 141.909 724.422 143.545C725.257 145.165 726.425 146.409 727.925 147.278C729.425 148.131 731.18 148.557 733.192 148.557C734.538 148.557 735.757 148.369 736.848 147.994C737.939 147.602 738.885 147.031 739.686 146.281C740.487 145.531 741.092 144.602 741.501 143.494L750.143 144.466C749.598 146.75 748.558 148.744 747.024 150.449C745.507 152.136 743.564 153.449 741.195 154.386C738.825 155.307 736.115 155.767 733.064 155.767ZM775.744 155.767C771.806 155.767 768.406 154.949 765.542 153.312C762.695 151.659 760.505 149.324 758.971 146.307C757.437 143.273 756.67 139.702 756.67 135.594C756.67 131.554 757.437 128.009 758.971 124.957C760.522 121.889 762.687 119.503 765.465 117.798C768.244 116.077 771.508 115.216 775.258 115.216C777.678 115.216 779.962 115.608 782.11 116.392C784.275 117.159 786.184 118.352 787.837 119.972C789.508 121.591 790.82 123.653 791.775 126.159C792.729 128.648 793.207 131.614 793.207 135.057V137.895H761.016V131.656H784.335C784.317 129.884 783.934 128.307 783.184 126.926C782.434 125.528 781.386 124.429 780.039 123.628C778.71 122.827 777.158 122.426 775.386 122.426C773.494 122.426 771.832 122.886 770.4 123.807C768.968 124.71 767.852 125.903 767.05 127.386C766.266 128.852 765.866 130.463 765.849 132.219V137.665C765.849 139.949 766.266 141.909 767.102 143.545C767.937 145.165 769.104 146.409 770.604 147.278C772.104 148.131 773.86 148.557 775.871 148.557C777.218 148.557 778.437 148.369 779.528 147.994C780.619 147.602 781.565 147.031 782.366 146.281C783.167 145.531 783.772 144.602 784.181 143.494L792.823 144.466C792.278 146.75 791.238 148.744 789.704 150.449C788.187 152.136 786.244 153.449 783.874 154.386C781.505 155.307 778.795 155.767 775.744 155.767Z" fill="#8B5CF6"/>
</svg>
