<svg width="281" height="317" viewBox="0 0 281 317" fill="none" xmlns="http://www.w3.org/2000/svg">
<path d="M231.3 178.84C231.153 177.973 230.767 177.04 230.14 176.04C229.513 175.027 228.62 174.087 227.46 173.22C226.313 172.353 225.167 171.8 224.02 171.56V170.72C225.153 170.453 226.24 169.96 227.28 169.24C228.333 168.507 229.213 167.627 229.92 166.6C230.64 165.547 231.1 164.507 231.3 163.48H232.14C232.26 164.147 232.5 164.833 232.86 165.54C233.22 166.233 233.68 166.9 234.24 167.54C234.813 168.167 235.453 168.733 236.16 169.24C237.213 169.987 238.287 170.48 239.38 170.72V171.56C238.647 171.707 237.887 172.007 237.1 172.46C236.327 172.913 235.607 173.453 234.94 174.08C234.273 174.693 233.727 175.34 233.3 176.02C232.673 177.02 232.287 177.96 232.14 178.84H231.3Z" fill="white"/>
<path d="M222.62 114.08C227.753 114.08 232.667 114.373 237.36 114.96C242.2 115.4 246.673 116.133 250.78 117.16C255.033 118.04 258.847 119.287 262.22 120.9C263.393 121.487 264.127 122.073 264.42 122.66C264.86 123.247 265.153 124.347 265.3 125.96L267.94 155C267.94 155.44 267.573 155.733 266.84 155.88C266.107 156.027 265.593 155.807 265.3 155.22C261.487 143.34 255.84 134.247 248.36 127.94C240.88 121.487 231.493 118.26 220.2 118.26C209.347 118.26 199.74 120.973 191.38 126.4C183.02 131.68 176.493 139.307 171.8 149.28C167.107 159.107 164.76 170.84 164.76 184.48C164.76 194.453 166.153 203.62 168.94 211.98C171.873 220.34 175.907 227.527 181.04 233.54C186.32 239.553 192.407 244.247 199.3 247.62C206.193 250.847 213.747 252.46 221.96 252.46C232.96 252.46 241.98 249.6 249.02 243.88C256.06 238.16 262.22 229.213 267.5 217.04C267.647 216.6 268.087 216.453 268.82 216.6C269.553 216.747 269.92 216.967 269.92 217.26L267.06 243.44C266.913 245.2 266.62 246.373 266.18 246.96C265.887 247.4 265.153 247.913 263.98 248.5C256.793 251.433 249.753 253.487 242.86 254.66C235.967 255.98 228.927 256.64 221.74 256.64C206.047 256.64 192.113 253.707 179.94 247.84C167.767 241.827 158.16 233.467 151.12 222.76C144.227 211.907 140.78 199.513 140.78 185.58C140.78 175.02 142.833 165.34 146.94 156.54C151.047 147.74 156.767 140.187 164.1 133.88C171.58 127.573 180.307 122.733 190.28 119.36C200.253 115.84 211.033 114.08 222.62 114.08Z" fill="#F8FAFC"/>
<path d="M25.96 176.38L28.16 70.56L34.1 71L31.68 176.38C31.5333 184.153 33 190.093 36.08 194.2C39.3067 198.307 44.0733 200.36 50.38 200.36C50.82 200.36 51.04 200.8 51.04 201.68C51.04 202.56 50.82 203 50.38 203C47.1533 203 43.8533 202.927 40.48 202.78C37.1067 202.633 33.2933 202.56 29.04 202.56C24.64 202.56 20.6067 202.633 16.94 202.78C13.42 202.927 10.0467 203 6.82 203C6.38 203 6.16 202.56 6.16 201.68C6.16 200.8 6.38 200.36 6.82 200.36C12.8333 200.36 17.4533 198.307 20.68 194.2C24.0533 190.093 25.8133 184.153 25.96 176.38ZM181.72 200.36C182.013 200.36 182.16 200.8 182.16 201.68C182.16 202.56 182.013 203 181.72 203C177.907 203 173.653 202.927 168.96 202.78C164.267 202.633 159.353 202.56 154.22 202.56C149.087 202.56 144.247 202.633 139.7 202.78C135.3 202.927 131.267 203 127.6 203C127.307 203 127.16 202.56 127.16 201.68C127.16 200.8 127.307 200.36 127.6 200.36C134.64 200.36 139.187 199.407 141.24 197.5C143.293 195.593 144.1 191.487 143.66 185.18L139.04 84.64L148.72 69.46L92.4 201.46C92.2533 202.047 91.6667 202.34 90.64 202.34C89.6133 202.34 88.9533 202.047 88.66 201.46L29.04 83.76C23.76 73.3467 16.8667 68.14 8.36 68.14C7.92 68.14 7.7 67.7 7.7 66.82C7.7 65.94 7.92 65.5 8.36 65.5C11.1467 65.5 14.08 65.5733 17.16 65.72C20.3867 65.8667 23.1 65.94 25.3 65.94C28.5267 65.94 31.3867 65.8667 33.88 65.72C36.52 65.5733 38.5733 65.5 40.04 65.5C42.0933 65.5 43.6333 66.2333 44.66 67.7C45.8333 69.02 47.6667 72.1 50.16 76.94L99.66 173.96L90.2 190.68L142.34 71C143.22 69.0933 144.173 67.7 145.2 66.82C146.227 65.94 147.473 65.5 148.94 65.5C150.26 65.5 151.653 65.5733 153.12 65.72C154.733 65.8667 156.64 65.94 158.84 65.94C163.24 65.94 166.98 65.8667 170.06 65.72C173.14 65.5733 176.147 65.5 179.08 65.5C179.52 65.5 179.74 65.94 179.74 66.82C179.74 67.7 179.52 68.14 179.08 68.14C172.333 68.14 167.347 69.3867 164.12 71.88C160.893 74.3733 159.427 78.6267 159.72 84.64L164.56 185.18C164.853 189.433 165.367 192.66 166.1 194.86C166.98 197.06 168.593 198.527 170.94 199.26C173.433 199.993 177.027 200.36 181.72 200.36Z" fill="white"/>
</svg>
